%FSTAX23Y23*%
%MOIN*%
%SFA1B1*%

%IPPOS*%
%ADD11C,0.007874*%
%LNpcb1_top_assembly-1*%
%LPD*%
G36*
X03252Y03955D02*
X03252D01*
X03253*
X03253*
X03254*
X03255Y03955*
X03255*
X03256Y03955*
X03256*
X03257Y03954*
X03257Y03954*
X03258*
Y03953*
X03258*
X03259Y03953*
X03259Y03953*
X03259Y03952*
Y03952*
X0326Y03951*
X0326Y03951*
X03261Y03951*
Y0395*
X03261Y0395*
X03261Y03949*
Y03948*
X03258Y03948*
Y03948*
X03258Y03948*
X03257Y03949*
X03257Y0395*
X03257Y0395*
X03256Y03951*
X03256*
X03255Y03951*
X03255Y03952*
X03255Y03952*
X03254*
X03253Y03953*
X03252*
X03251*
X03251*
X03251*
X0325*
X0325*
X0325*
X03249Y03952*
X03248*
X03247Y03952*
X03247Y03951*
X03246*
Y03951*
X03246*
Y03951*
X03246Y0395*
X03245Y0395*
X03244Y03949*
X03244Y03948*
X03244Y03948*
Y03947*
Y03947*
Y03946*
X03243Y03946*
Y03945*
Y03944*
X03243Y03944*
Y03943*
Y03942*
Y03942*
X03243Y03942*
Y03941*
Y03941*
Y0394*
Y03939*
X03244Y03938*
X03244Y03937*
Y03937*
Y03937*
X03244Y03936*
X03245Y03936*
X03245Y03935*
X03246Y03935*
X03246Y03934*
X03247Y03933*
X03247*
X03248*
X03248Y03933*
X03249Y03933*
X0325*
X0325*
X03251Y03932*
X03251*
Y03933*
X03252*
X03252*
X03253*
X03253*
X03254Y03933*
X03255Y03933*
X03255*
X03255Y03934*
X03256Y03934*
X03256*
Y03935*
X03257*
Y03935*
X03257Y03935*
X03257Y03936*
Y03936*
X03258Y03937*
X03258Y03937*
Y03938*
Y03938*
X03259Y03939*
X03262Y03938*
Y03938*
Y03937*
Y03937*
X03261Y03937*
Y03936*
X03261Y03936*
Y03935*
X03261Y03935*
X0326Y03934*
X0326Y03933*
X03259Y03933*
X03259Y03933*
X03259Y03932*
X03258Y03932*
X03258Y03931*
X03257*
Y03931*
X03257*
X03257Y03931*
X03256*
X03256Y0393*
X03255*
X03255Y0393*
X03254*
X03253*
X03253Y03929*
X03252*
X03251*
X03251*
X03251*
X0325*
X0325*
X0325Y0393*
X03249*
X03248*
X03247Y0393*
X03246*
X03246Y03931*
X03245Y03931*
X03245*
Y03931*
X03244*
X03244Y03932*
X03244Y03932*
X03243Y03933*
X03243*
Y03933*
X03242Y03933*
X03242Y03934*
X03242Y03935*
X03241Y03935*
Y03935*
X03241Y03936*
X0324Y03937*
Y03937*
Y03937*
Y03938*
X0324Y03938*
Y03938*
Y03939*
X0324Y0394*
Y0394*
Y03941*
Y03943*
Y03943*
Y03944*
Y03944*
Y03944*
Y03945*
Y03946*
X0324Y03946*
Y03947*
X0324Y03948*
X03241Y03949*
Y0395*
X03241Y0395*
Y0395*
X03242Y03951*
X03242Y03951*
X03243Y03952*
X03244Y03953*
X03244Y03953*
X03245Y03954*
X03245Y03954*
X03246*
X03246*
X03246Y03955*
X03247*
X03247Y03955*
X03248*
X03248*
X03249Y03955*
X0325*
X03251*
X03252*
G37*
G36*
X03274D02*
X03274Y03955D01*
X03274*
X03275*
X03275*
X03276Y03955*
X03276*
X03277Y03954*
X03277*
X03278Y03954*
X03278Y03953*
X03279Y03953*
X03279*
X03279Y03953*
Y03952*
X0328Y03952*
X0328Y03951*
Y03951*
X03281Y0395*
Y0395*
Y0395*
X03281Y03949*
Y03948*
Y03948*
Y03948*
Y03947*
X03281Y03947*
Y03946*
Y03946*
X0328Y03945*
X0328Y03945*
Y03944*
X03279Y03944*
X03279Y03943*
X03279Y03943*
X03278Y03942*
X03278*
Y03942*
X03277*
Y03941*
X03277Y03941*
X03277*
X03276Y0394*
X03276Y0394*
X03275Y0394*
X03275Y03939*
X03275Y03939*
X03274Y03938*
X03274Y03938*
X03273*
Y03937*
X03273*
X03272Y03937*
X03272Y03937*
X03271Y03936*
X03271Y03935*
X0327*
Y03935*
X0327Y03935*
X0327*
Y03934*
X03269*
Y03934*
X03269Y03933*
X03268Y03933*
X03281*
Y0393*
X03264*
Y0393*
Y03931*
X03264Y03931*
Y03931*
Y03932*
Y03932*
X03265*
Y03933*
X03265Y03933*
Y03934*
X03266Y03934*
X03266Y03935*
X03266Y03935*
X03267*
Y03936*
X03267Y03936*
X03268Y03937*
X03268Y03937*
X03269Y03938*
X0327Y03938*
X03271Y03939*
X03271Y0394*
X03272Y0394*
X03272Y0394*
X03272Y03941*
X03273Y03941*
X03274Y03942*
X03275Y03943*
X03275Y03943*
X03275Y03944*
X03276Y03944*
X03276Y03945*
X03277Y03945*
X03277Y03946*
Y03946*
X03277Y03947*
Y03948*
X03278Y03948*
Y03948*
Y03949*
X03277Y03949*
Y0395*
Y0395*
X03277Y0395*
X03277Y03951*
X03276Y03951*
X03276Y03952*
X03275Y03952*
X03275*
X03274Y03953*
X03274*
X03273*
X03272*
X03272*
X03272*
X03271Y03952*
X0327*
X0327Y03952*
X03269Y03951*
Y03951*
X03269Y03951*
Y0395*
X03268Y0395*
X03268Y03949*
Y03948*
Y03948*
X03265Y03948*
Y03948*
Y03949*
Y03949*
X03265Y0395*
Y0395*
X03266Y03951*
Y03951*
X03266Y03952*
Y03952*
X03266Y03953*
X03267Y03953*
X03267Y03953*
X03268*
Y03954*
X03268*
X03268Y03954*
X03269*
X03269Y03955*
X0327*
X0327Y03955*
X03271*
X03271*
X03272*
X03272Y03955*
X03273*
X03274*
G37*
G36*
X03855Y04588D02*
D01*
X03854*
X03854*
X03853Y04588*
X03853*
X03853*
X03852*
Y04589*
X03852*
X03851*
X03851Y04589*
X0385Y0459*
X0385Y0459*
X03849Y0459*
Y04591*
X03849*
X03848Y04591*
X03848Y04592*
X03848Y04592*
X03847Y04593*
X03846Y04594*
X03845Y04595*
X03845Y04595*
X03844Y04596*
X03844Y04596*
X03844Y04596*
X03843Y04597*
X03842Y04598*
X03842Y04599*
X03841Y04599*
X0384Y046*
X0384Y046*
X0384Y046*
X03839Y04601*
X03838Y04601*
X03838*
X03837Y04601*
X03837*
X03837Y04602*
X03836*
X03836Y04601*
X03835*
X03835*
X03835*
X03834Y04601*
X03833Y04601*
X03833Y046*
X03833Y046*
X03832Y046*
Y04599*
X03832Y04598*
Y04598*
Y04597*
Y04596*
Y04596*
Y04596*
X03832Y04595*
Y04594*
X03833Y04594*
X03833Y04593*
X03833*
X03834Y04593*
X03834*
X03835Y04592*
X03835Y04592*
X03836*
X03837*
X03837Y04589*
X03836*
X03836*
X03835*
X03835Y04589*
X03835*
X03834Y0459*
X03833*
X03833Y0459*
X03832*
X03832Y0459*
X03831Y04591*
X03831Y04591*
Y04592*
X03831*
Y04592*
X0383Y04592*
Y04593*
X0383Y04593*
Y04594*
X03829Y04594*
Y04594*
Y04595*
Y04596*
X03829Y04596*
Y04597*
Y04598*
X03829Y04598*
Y04598*
Y04599*
Y04599*
X0383Y046*
Y046*
X0383Y04601*
Y04601*
X03831Y04602*
X03831Y04602*
X03831Y04603*
Y04603*
X03832*
X03832Y04603*
X03833Y04604*
X03833*
X03833Y04604*
X03834Y04605*
X03835*
X03835*
X03836Y04605*
X03836*
X03837*
X03837*
X03837Y04605*
X03838*
X03838*
X03838*
X03839Y04604*
X0384Y04604*
X0384*
X0384Y04603*
X03841Y04603*
X03842Y04603*
X03842Y04602*
Y04602*
X03843*
Y04601*
X03843*
X03844Y04601*
Y04601*
X03844Y046*
X03844Y046*
X03845Y046*
X03845Y04599*
X03846Y04599*
X03846Y04598*
X03847Y04598*
Y04597*
X03847Y04597*
X03848Y04596*
X03848Y04596*
X03848Y04595*
X03849Y04595*
Y04594*
X0385*
X0385Y04594*
Y04594*
X0385*
Y04593*
X03851*
X03851Y04593*
X03851Y04592*
Y04605*
X03855*
Y04588*
G37*
G36*
Y04583D02*
X03849Y04579D01*
X03849*
X03848Y04579*
X03848Y04578*
X03848Y04578*
X03847Y04577*
X03846Y04577*
X03846Y04577*
X03846*
Y04576*
X03845*
X03845Y04576*
Y04575*
X03844*
X03844Y04575*
Y04575*
X03844Y04574*
Y04574*
X03843Y04573*
Y04573*
Y04572*
Y04568*
X03855*
Y04564*
X03829*
Y04576*
Y04577*
Y04577*
Y04577*
Y04578*
Y04579*
X0383Y0458*
Y04581*
Y04581*
X0383*
Y04581*
X03831Y04582*
X03831Y04582*
X03831Y04583*
X03832Y04583*
X03833Y04584*
X03833Y04584*
X03833*
X03834Y04585*
X03835*
X03835*
X03836*
X03837*
X03837*
X03837*
X03838*
X03838Y04584*
X03839*
X0384Y04584*
X0384Y04583*
X0384*
X03841Y04583*
Y04583*
X03841*
Y04582*
X03842Y04582*
X03842Y04581*
Y04581*
X03842Y04581*
Y0458*
X03843Y04579*
Y04579*
Y04578*
X03843Y04577*
Y04578*
X03844Y04578*
X03844Y04579*
Y04579*
X03844*
Y0458*
X03845Y0458*
X03845Y04581*
X03846Y04581*
X03846Y04581*
X03847Y04582*
X03848Y04582*
X03855Y04587*
Y04583*
G37*
G36*
X03555Y03374D02*
X03545D01*
X03545*
X03544*
X03544*
X03543*
X03542Y03375*
X03541*
X03541*
X0354Y03375*
X0354*
X0354Y03375*
X03539*
X03538Y03376*
X03538Y03377*
X03537*
Y03377*
X03537*
Y03377*
X03537*
X03536Y03378*
X03536Y03379*
X03535Y0338*
X03535Y03381*
Y03381*
Y03381*
X03534Y03382*
Y03382*
Y03383*
Y03383*
Y03383*
X03534Y03384*
Y03385*
Y03386*
Y03387*
Y03387*
Y03388*
Y03388*
Y03388*
Y03389*
Y0339*
X03534Y03391*
Y03392*
X03535*
Y03392*
Y03393*
X03535Y03393*
Y03394*
X03535Y03394*
X03536Y03395*
X03536Y03396*
Y03396*
X03537*
X03537Y03396*
Y03397*
X03537Y03397*
X03538Y03398*
X03538Y03398*
X03539Y03398*
X03539*
X0354*
X0354Y03399*
X03541Y03399*
X03541*
X03542*
X03542*
X03542*
X03543Y034*
X03544*
X03545*
X03546*
X03555*
Y03374*
G37*
G36*
X03522Y0338D02*
X03522D01*
X03522Y0338*
Y03381*
X03523*
X03524Y03381*
X03524Y03381*
X03525Y03382*
Y03382*
X03525*
X03525*
X03526Y03383*
X03526Y03383*
X03527*
X03527Y03383*
X03528*
Y03381*
Y0338*
X03527*
X03527*
X03526Y0338*
X03526Y03379*
X03525Y03379*
X03524Y03378*
X03524Y03377*
X03523*
X03523Y03377*
X03522Y03377*
X03522Y03376*
X03522Y03375*
X03521Y03375*
X03521Y03374*
X03519*
Y034*
X03522*
Y0338*
G37*
G36*
X03409Y04144D02*
D01*
X03409*
X0341*
X0341*
X03411*
X03411Y04144*
X03412*
X03413Y04144*
X03414Y04143*
X03414*
Y04143*
X03415*
X03415*
Y04142*
X03416*
X03416Y04142*
X03416*
X03417Y04141*
X03418Y0414*
X03418Y0414*
X03419Y04139*
X03419Y04139*
Y04138*
Y04138*
X0342*
Y04138*
Y04137*
X0342Y04137*
Y04137*
Y04136*
X0342Y04135*
Y04134*
X03421Y04133*
Y04132*
X0342Y04132*
Y04131*
Y04131*
Y0413*
X0342Y04129*
Y04129*
X0342Y04128*
Y04128*
X03419Y04127*
X03419Y04127*
Y04126*
X03418*
Y04126*
X03418Y04125*
X03418Y04125*
X03417Y04125*
X03417Y04124*
X03416*
X03416Y04124*
X03416Y04124*
X03415Y04123*
X03414*
X03414Y04123*
X03413*
X03412Y04126*
X03413*
X03413Y04126*
X03414Y04127*
X03414Y04127*
X03415Y04127*
X03416Y04128*
Y04128*
X03416*
Y04129*
X03417*
Y04129*
X03417Y04129*
Y0413*
X03418Y04131*
Y04132*
Y04133*
Y04133*
Y04133*
Y04134*
Y04134*
Y04135*
X03417Y04135*
Y04136*
X03417Y04137*
X03416Y04137*
Y04138*
X03416*
X03416Y04138*
X03415Y04138*
X03415Y04139*
X03414Y0414*
X03413Y0414*
X03412Y0414*
X03412*
X03412*
X03411*
X03411Y04141*
X03411*
X03409*
X03409*
X03408Y04141*
X03407*
X03407Y04141*
X03407*
X03406*
X03406*
X03405*
X03404*
X03403Y0414*
X03402Y0414*
X03402*
X03401Y0414*
X03401Y04139*
X034Y04139*
X034Y04138*
X03399Y04138*
X03399Y04137*
X03398*
Y04137*
Y04137*
X03398Y04136*
X03398Y04135*
Y04135*
Y04134*
Y04133*
Y04133*
Y04132*
Y04132*
Y04131*
X03398Y04131*
Y0413*
X03398Y04129*
Y04129*
X03399Y04129*
X03399Y04128*
Y04128*
X034*
Y04127*
X034*
X034Y04127*
X03401Y04127*
X03401Y04126*
X03401*
X03402Y04126*
X03403*
X03403Y04125*
X03404*
X03403Y04122*
X03403*
X03402*
X03402*
X03401Y04123*
X03401*
X03401Y04123*
X034*
X034Y04124*
X03399Y04124*
X03399Y04124*
X03398Y04125*
X03398Y04125*
X03397Y04125*
X03397Y04126*
X03396Y04126*
X03396Y04127*
Y04127*
Y04127*
X03396Y04128*
X03395Y04128*
Y04129*
Y04129*
X03395Y0413*
Y04131*
Y04131*
X03394Y04132*
Y04133*
Y04133*
Y04133*
Y04134*
X03395Y04134*
Y04135*
Y04135*
Y04136*
X03395Y04137*
X03396Y04138*
Y04138*
X03396Y04139*
Y04139*
X03396*
Y0414*
X03397Y0414*
X03397Y0414*
X03398Y04141*
Y04141*
X03398*
X03398Y04142*
X03399Y04142*
X034Y04142*
X034Y04143*
X034*
X03401Y04143*
X03401*
X03402Y04144*
X03402*
X03403*
X03403Y04144*
X03403*
X03404*
X03405Y04144*
X03405*
X03407*
X03408*
X03408*
X03409*
G37*
G36*
X03414Y04117D02*
D01*
Y04116*
X03414Y04116*
X03415Y04115*
X03415Y04115*
X03416Y04114*
X03416Y04113*
X03417Y04112*
X03417Y04112*
X03418Y04112*
X03418Y04111*
X03418Y04111*
X03419Y04111*
X0342Y0411*
X0342Y0411*
Y04108*
X03395*
Y04111*
X03414*
X03414Y04111*
Y04112*
X03414Y04112*
X03413Y04112*
X03413Y04113*
X03412Y04114*
Y04114*
X03412Y04114*
Y04115*
X03412Y04115*
X03411Y04116*
Y04116*
X03411Y04117*
X03414*
G37*
G36*
X03579Y03789D02*
X03575D01*
Y03809*
X03575*
Y03808*
X03575*
X03574Y03808*
X03574Y03807*
X03573Y03807*
X03572Y03807*
X03572Y03806*
X03572*
X03571Y03806*
X0357Y03805*
X0357*
X03569Y03805*
Y03808*
X0357*
X0357*
Y03809*
X03571Y03809*
X03572Y03809*
X03572Y0381*
X03573Y03811*
X03574Y03811*
Y03811*
X03574Y03812*
X03575Y03812*
X03575Y03812*
X03576Y03813*
X03576Y03814*
X03577Y03814*
X03579*
Y03789*
G37*
G36*
X03552Y03814D02*
X03553D01*
X03553*
X03554*
X03555*
X03556Y03814*
X03556Y03814*
X03557*
X03557Y03813*
X03558Y03813*
X03558*
X03559Y03812*
X03559*
Y03812*
X03559Y03812*
X0356Y03811*
X0356*
X03561Y03811*
X03561Y03811*
X03561Y0381*
X03562Y03809*
X03562Y03808*
X03562Y03808*
Y03807*
X03563Y03807*
Y03807*
Y03806*
X03563Y03805*
Y03805*
Y03804*
X03564Y03803*
Y03802*
Y03801*
Y03801*
Y03801*
Y038*
Y038*
X03563Y03799*
Y03798*
X03563Y03797*
X03562Y03796*
Y03796*
X03562Y03795*
Y03794*
X03562Y03794*
X03561Y03793*
X03561Y03792*
X0356Y03792*
X0356*
X03561Y03791*
X03561Y03791*
X03562Y0379*
X03562Y0379*
X03563Y0379*
X03564Y03789*
X03563Y03787*
X03563*
Y03787*
X03562*
X03562Y03788*
X03562*
X03561*
X03561Y03788*
X0356Y03789*
X03559Y03789*
X03558Y0379*
X03557*
X03557Y0379*
X03557*
X03556*
X03556Y03789*
X03555*
X03555*
X03555Y03789*
X03554*
X03553Y03788*
X03552*
X03551*
X03551*
X03551*
X0355Y03789*
X0355*
X0355*
X03548*
X03548Y03789*
X03547Y0379*
X03546*
X03546Y0379*
X03545*
Y0379*
X03545*
Y03791*
X03544*
X03544Y03791*
X03544*
X03543Y03792*
Y03792*
X03543Y03792*
X03542Y03793*
X03542Y03793*
X03542Y03794*
X03541Y03795*
Y03795*
Y03796*
X0354Y03796*
Y03796*
Y03797*
X0354Y03797*
Y03798*
X0354Y03798*
Y03799*
Y038*
Y03801*
Y03801*
Y03802*
Y03802*
Y03803*
Y03803*
Y03803*
Y03804*
Y03804*
X0354Y03805*
Y03806*
X0354Y03807*
X03541Y03808*
Y03809*
X03541*
Y03809*
X03542*
Y03809*
X03542Y0381*
Y0381*
X03543Y03811*
X03544Y03812*
X03544Y03812*
X03545Y03813*
X03545*
Y03813*
X03546*
X03546*
X03546Y03814*
X03547*
X03547Y03814*
X03548*
X03548*
X03549Y03814*
X03549*
X0355*
X03551*
X03551Y03815*
X03552*
X03552Y03814*
G37*
%LNpcb1_top_assembly-2*%
%LPC*%
G36*
X03836Y04581D02*
D01*
X03836*
Y04581*
X03835*
X03835*
X03834Y04581*
X03834Y0458*
X03833Y0458*
X03833*
Y04579*
X03833Y04579*
Y04579*
Y04578*
X03832Y04578*
Y04577*
Y04577*
Y04577*
Y04576*
Y04568*
X0384*
Y04575*
Y04576*
Y04576*
Y04577*
X0384Y04577*
Y04578*
Y04579*
X0384Y04579*
Y04579*
X03839Y0458*
X03839Y0458*
X03838Y04581*
X03838*
X03838Y04581*
X03837*
X03837*
X03837Y04581*
X03836*
G37*
G36*
X03551Y03396D02*
X03545D01*
X03545*
X03544*
X03544*
X03543*
X03542*
X03542Y03396*
X03542*
X03541*
Y03396*
X03541*
X0354Y03395*
X0354*
X0354Y03395*
X03539Y03394*
X03539Y03394*
X03538Y03394*
Y03393*
X03538Y03392*
X03538Y03392*
Y03391*
Y03391*
X03537Y0339*
Y0339*
Y0339*
Y03389*
Y03388*
X03537Y03387*
Y03387*
X03537Y03386*
Y03386*
Y03385*
Y03385*
Y03385*
Y03383*
X03538Y03383*
X03538Y03381*
Y03381*
X03538Y03381*
Y0338*
X03539Y0338*
X03539Y03379*
X0354Y03379*
X0354Y03379*
X03541Y03378*
X03541Y03378*
X03542*
X03542*
Y03377*
X03542*
X03543*
X03543*
X03544*
X03544*
X03544*
X03545*
X03545*
X03551*
Y03396*
G37*
G36*
X03551Y03812D02*
X03551D01*
X03551*
X0355*
X0355*
X0355Y03811*
X03549*
X03548*
X03548Y03811*
X03548Y03811*
X03547*
X03546Y0381*
X03546Y0381*
X03546Y03809*
X03545*
Y03809*
Y03809*
X03545*
Y03808*
X03544Y03808*
X03544Y03807*
Y03807*
X03544Y03806*
Y03806*
X03543Y03805*
Y03804*
Y03803*
X03543Y03803*
Y03801*
Y03801*
Y03801*
X03543Y038*
Y038*
Y038*
Y03799*
Y03798*
X03544Y03798*
Y03797*
X03544Y03796*
X03544Y03796*
X03545Y03795*
Y03795*
X03546Y03794*
X03546Y03794*
X03546Y03793*
X03547Y03793*
X03547*
X03548Y03792*
X03548*
X03548Y03792*
X03549*
X0355Y03792*
X0355*
X03551*
X03551*
X03552*
X03552*
X03553*
X03553*
X03554*
X03554Y03792*
X03555*
X03555Y03792*
X03554*
X03554Y03793*
X03553*
X03553Y03793*
X03552*
X03551Y03794*
X03553Y03796*
X03553*
Y03796*
X03553*
X03554*
X03554Y03795*
X03555*
X03556Y03795*
X03557Y03794*
X03557Y03794*
Y03794*
X03558*
Y03794*
X03558Y03795*
X03559Y03795*
Y03796*
X03559Y03796*
X03559Y03797*
Y03798*
X0356Y03798*
Y03799*
X0356Y038*
Y03801*
Y03801*
Y03802*
Y03802*
Y03803*
Y03803*
Y03803*
X0356Y03804*
Y03805*
X03559Y03806*
X03559Y03807*
Y03807*
X03559Y03808*
X03558Y03808*
X03558Y03809*
X03557Y03809*
X03557Y0381*
X03556Y03811*
X03556*
X03555Y03811*
X03555*
X03555Y03811*
X03554*
X03553Y03812*
X03553*
X03551*
G37*
%LNpcb1_top_assembly-3*%
%LPD*%
G54D11*
X03157Y0389D02*
Y03969D01*
Y0389D02*
X03322D01*
Y03969*
X03157D02*
X03322D01*
X03708Y04426D02*
X04001D01*
Y04703*
X03708D02*
X04001D01*
X03708Y04426D02*
Y04703D01*
X03687Y03338D02*
Y03461D01*
X03423D02*
X03687D01*
X03423Y03338D02*
Y03461D01*
Y03338D02*
X03687D01*
X03355Y04227D02*
X03434D01*
X03355Y04062D02*
Y04227D01*
Y04062D02*
X03434D01*
Y04227*
X03446Y03576D02*
Y04013D01*
Y03576D02*
X03633D01*
Y04013*
X03446D02*
X03633D01*
M02*