%FSTAX23Y23*%
%MOIN*%
%SFA1B1*%

%IPPOS*%
%ADD10C,0.009843*%
%ADD11C,0.007874*%
%ADD12C,0.023622*%
%ADD13C,0.020079*%
%ADD14C,0.029921*%
%ADD15C,0.044882*%
%ADD16C,0.009843*%
%LNpcb1_legend_top-1*%
%LPD*%
G54D10*
X03709Y034D02*
D01*
X03709Y034*
X03709Y034*
X03709Y034*
X03709Y03401*
X03709Y03401*
X03709Y03401*
X03708Y03402*
X03708Y03402*
X03708Y03402*
X03708Y03403*
X03708Y03403*
X03707Y03403*
X03707Y03403*
X03707Y03403*
X03707Y03404*
X03706Y03404*
X03706Y03404*
X03706Y03404*
X03705Y03404*
X03705Y03404*
X03705Y03404*
X03704Y03404*
X03704*
X03704Y03404*
X03703Y03404*
X03703Y03404*
X03703Y03404*
X03702Y03404*
X03702Y03404*
X03702Y03404*
X03702Y03403*
X03701Y03403*
X03701Y03403*
X03701Y03403*
X03701Y03403*
X037Y03402*
X037Y03402*
X037Y03402*
X037Y03401*
X037Y03401*
X037Y03401*
X037Y034*
X037Y034*
X037Y034*
X037Y034*
X037Y03399*
X037Y03399*
X037Y03399*
X037Y03398*
X037Y03398*
X037Y03398*
X037Y03397*
X037Y03397*
X037Y03397*
X03701Y03396*
X03701Y03396*
X03701Y03396*
X03701Y03396*
X03702Y03396*
X03702Y03395*
X03702Y03395*
X03702Y03395*
X03703Y03395*
X03703Y03395*
X03703Y03395*
X03704Y03395*
X03704Y03395*
X03704*
X03705Y03395*
X03705Y03395*
X03705Y03395*
X03706Y03395*
X03706Y03395*
X03706Y03395*
X03707Y03395*
X03707Y03396*
X03707Y03396*
X03707Y03396*
X03708Y03396*
X03708Y03396*
X03708Y03397*
X03708Y03397*
X03708Y03397*
X03709Y03398*
X03709Y03398*
X03709Y03398*
X03709Y03399*
X03709Y03399*
X03709Y03399*
X03709Y034*
X03089Y03854D02*
D01*
X03089Y03855*
X03089Y03855*
X03089Y03855*
X03089Y03856*
X03089Y03856*
X03089Y03856*
X03089Y03856*
X03089Y03857*
X03088Y03857*
X03088Y03857*
X03088Y03858*
X03088Y03858*
X03087Y03858*
X03087Y03858*
X03087Y03858*
X03087Y03858*
X03086Y03859*
X03086Y03859*
X03086Y03859*
X03085Y03859*
X03085Y03859*
X03085Y03859*
X03084*
X03084Y03859*
X03084Y03859*
X03083Y03859*
X03083Y03859*
X03083Y03859*
X03082Y03858*
X03082Y03858*
X03082Y03858*
X03082Y03858*
X03081Y03858*
X03081Y03858*
X03081Y03857*
X03081Y03857*
X03081Y03857*
X0308Y03856*
X0308Y03856*
X0308Y03856*
X0308Y03856*
X0308Y03855*
X0308Y03855*
X0308Y03855*
X0308Y03854*
X0308Y03854*
X0308Y03854*
X0308Y03853*
X0308Y03853*
X0308Y03853*
X0308Y03852*
X0308Y03852*
X03081Y03852*
X03081Y03851*
X03081Y03851*
X03081Y03851*
X03081Y03851*
X03082Y03851*
X03082Y0385*
X03082Y0385*
X03082Y0385*
X03083Y0385*
X03083Y0385*
X03083Y0385*
X03084Y0385*
X03084Y0385*
X03084Y0385*
X03085*
X03085Y0385*
X03085Y0385*
X03086Y0385*
X03086Y0385*
X03086Y0385*
X03087Y0385*
X03087Y0385*
X03087Y0385*
X03087Y03851*
X03088Y03851*
X03088Y03851*
X03088Y03851*
X03088Y03851*
X03089Y03852*
X03089Y03852*
X03089Y03852*
X03089Y03853*
X03089Y03853*
X03089Y03853*
X03089Y03854*
X03089Y03854*
X03089Y03854*
X031Y04033D02*
D01*
X031Y04034*
X031Y04034*
X031Y04034*
X031Y04035*
X031Y04035*
X03099Y04035*
X03099Y04036*
X03099Y04036*
X03099Y04036*
X03099Y04036*
X03099Y04037*
X03098Y04037*
X03098Y04037*
X03098Y04037*
X03098Y04037*
X03097Y04038*
X03097Y04038*
X03097Y04038*
X03096Y04038*
X03096Y04038*
X03096Y04038*
X03095Y04038*
X03095*
X03095Y04038*
X03094Y04038*
X03094Y04038*
X03094Y04038*
X03093Y04038*
X03093Y04038*
X03093Y04037*
X03093Y04037*
X03092Y04037*
X03092Y04037*
X03092Y04037*
X03092Y04036*
X03091Y04036*
X03091Y04036*
X03091Y04036*
X03091Y04035*
X03091Y04035*
X03091Y04035*
X03091Y04034*
X0309Y04034*
X0309Y04034*
X0309Y04033*
X0309Y04033*
X0309Y04033*
X03091Y04032*
X03091Y04032*
X03091Y04032*
X03091Y04031*
X03091Y04031*
X03091Y04031*
X03091Y04031*
X03092Y0403*
X03092Y0403*
X03092Y0403*
X03092Y0403*
X03093Y04029*
X03093Y04029*
X03093Y04029*
X03093Y04029*
X03094Y04029*
X03094Y04029*
X03094Y04029*
X03095Y04029*
X03095Y04029*
X03095*
X03096Y04029*
X03096Y04029*
X03096Y04029*
X03097Y04029*
X03097Y04029*
X03097Y04029*
X03098Y04029*
X03098Y04029*
X03098Y0403*
X03098Y0403*
X03099Y0403*
X03099Y0403*
X03099Y04031*
X03099Y04031*
X03099Y04031*
X03099Y04031*
X031Y04032*
X031Y04032*
X031Y04032*
X031Y04033*
X031Y04033*
X031Y04033*
X03544Y04011D02*
D01*
X03544Y04011*
X03544Y04012*
X03544Y04012*
X03544Y04012*
X03544Y04013*
X03544Y04013*
X03544Y04013*
X03544Y04013*
X03543Y04014*
X03543Y04014*
X03543Y04014*
X03543Y04014*
X03543Y04015*
X03542Y04015*
X03542Y04015*
X03542Y04015*
X03541Y04015*
X03541Y04015*
X03541Y04016*
X0354Y04016*
X0354Y04016*
X0354Y04016*
X03539*
X03539Y04016*
X03539Y04016*
X03539Y04016*
X03538Y04015*
X03538Y04015*
X03538Y04015*
X03537Y04015*
X03537Y04015*
X03537Y04015*
X03536Y04014*
X03536Y04014*
X03536Y04014*
X03536Y04014*
X03536Y04013*
X03535Y04013*
X03535Y04013*
X03535Y04013*
X03535Y04012*
X03535Y04012*
X03535Y04012*
X03535Y04011*
X03535Y04011*
X03535Y04011*
X03535Y0401*
X03535Y0401*
X03535Y0401*
X03535Y04009*
X03535Y04009*
X03535Y04009*
X03536Y04008*
X03536Y04008*
X03536Y04008*
X03536Y04008*
X03536Y04007*
X03537Y04007*
X03537Y04007*
X03537Y04007*
X03538Y04007*
X03538Y04007*
X03538Y04006*
X03539Y04006*
X03539Y04006*
X03539Y04006*
X03539Y04006*
X0354*
X0354Y04006*
X0354Y04006*
X03541Y04006*
X03541Y04006*
X03541Y04007*
X03542Y04007*
X03542Y04007*
X03542Y04007*
X03543Y04007*
X03543Y04007*
X03543Y04008*
X03543Y04008*
X03543Y04008*
X03544Y04008*
X03544Y04009*
X03544Y04009*
X03544Y04009*
X03544Y0401*
X03544Y0401*
X03544Y0401*
X03544Y04011*
X03544Y04011*
X03003Y03911D02*
D01*
X03003Y03911*
X03003Y03911*
X03003Y03912*
X03002Y03912*
X03002Y03912*
X03002Y03912*
X03002Y03913*
X03002Y03913*
X03002Y03913*
X03002Y03914*
X03001Y03914*
X03001Y03914*
X03001Y03914*
X03001Y03914*
X03Y03915*
X03Y03915*
X03Y03915*
X02999Y03915*
X02999Y03915*
X02999Y03915*
X02998Y03915*
X02998Y03915*
X02998*
X02997Y03915*
X02997Y03915*
X02997Y03915*
X02996Y03915*
X02996Y03915*
X02996Y03915*
X02996Y03915*
X02995Y03914*
X02995Y03914*
X02995Y03914*
X02995Y03914*
X02994Y03914*
X02994Y03913*
X02994Y03913*
X02994Y03913*
X02994Y03912*
X02993Y03912*
X02993Y03912*
X02993Y03912*
X02993Y03911*
X02993Y03911*
X02993Y03911*
X02993Y0391*
X02993Y0391*
X02993Y0391*
X02993Y03909*
X02993Y03909*
X02994Y03909*
X02994Y03908*
X02994Y03908*
X02994Y03908*
X02994Y03907*
X02995Y03907*
X02995Y03907*
X02995Y03907*
X02995Y03907*
X02996Y03906*
X02996Y03906*
X02996Y03906*
X02996Y03906*
X02997Y03906*
X02997Y03906*
X02997Y03906*
X02998Y03906*
X02998*
X02998Y03906*
X02999Y03906*
X02999Y03906*
X02999Y03906*
X03Y03906*
X03Y03906*
X03Y03906*
X03001Y03907*
X03001Y03907*
X03001Y03907*
X03001Y03907*
X03002Y03907*
X03002Y03908*
X03002Y03908*
X03002Y03908*
X03002Y03909*
X03002Y03909*
X03002Y03909*
X03003Y0391*
X03003Y0391*
X03003Y0391*
X03003Y03911*
X02767Y03664D02*
D01*
X02767Y03665*
X02767Y03665*
X02767Y03665*
X02767Y03666*
X02767Y03666*
X02766Y03666*
X02766Y03667*
X02766Y03667*
X02766Y03667*
X02766Y03667*
X02765Y03668*
X02765Y03668*
X02765Y03668*
X02765Y03668*
X02764Y03669*
X02764Y03669*
X02764Y03669*
X02764Y03669*
X02763Y03669*
X02763Y03669*
X02763Y03669*
X02762Y03669*
X02762*
X02762Y03669*
X02761Y03669*
X02761Y03669*
X02761Y03669*
X0276Y03669*
X0276Y03669*
X0276Y03669*
X02759Y03668*
X02759Y03668*
X02759Y03668*
X02759Y03668*
X02758Y03667*
X02758Y03667*
X02758Y03667*
X02758Y03667*
X02758Y03666*
X02758Y03666*
X02758Y03666*
X02757Y03665*
X02757Y03665*
X02757Y03665*
X02757Y03664*
X02757Y03664*
X02757Y03664*
X02757Y03663*
X02758Y03663*
X02758Y03663*
X02758Y03663*
X02758Y03662*
X02758Y03662*
X02758Y03662*
X02758Y03661*
X02759Y03661*
X02759Y03661*
X02759Y03661*
X02759Y03661*
X0276Y0366*
X0276Y0366*
X0276Y0366*
X02761Y0366*
X02761Y0366*
X02761Y0366*
X02762Y0366*
X02762Y0366*
X02762*
X02763Y0366*
X02763Y0366*
X02763Y0366*
X02764Y0366*
X02764Y0366*
X02764Y0366*
X02764Y0366*
X02765Y03661*
X02765Y03661*
X02765Y03661*
X02765Y03661*
X02766Y03661*
X02766Y03662*
X02766Y03662*
X02766Y03662*
X02766Y03663*
X02767Y03663*
X02767Y03663*
X02767Y03663*
X02767Y03664*
X02767Y03664*
X02767Y03664*
G54D11*
X03262Y03658D02*
D01*
X03261Y0367*
X0326Y03682*
X03258Y03695*
X03255Y03707*
X03251Y03718*
X03246Y0373*
X03241Y03741*
X03235Y03752*
X03228Y03762*
X0322Y03772*
X03212Y03781*
X03203Y03789*
X03194Y03797*
X03184Y03805*
X03173Y03811*
X03162Y03817*
X03151Y03822*
X03139Y03826*
X03127Y0383*
X03115Y03832*
X03103Y03834*
X03091Y03835*
X03078*
X03066Y03834*
X03054Y03832*
X03042Y0383*
X0303Y03826*
X03018Y03822*
X03007Y03817*
X02996Y03811*
X02985Y03805*
X02975Y03797*
X02966Y03789*
X02957Y03781*
X02949Y03772*
X02941Y03762*
X02934Y03752*
X02928Y03741*
X02923Y0373*
X02918Y03718*
X02914Y03707*
X02911Y03695*
X02909Y03682*
X02908Y0367*
X02907Y03658*
X02908Y03645*
X02909Y03633*
X02911Y03621*
X02914Y03609*
X02918Y03597*
X02923Y03586*
X02928Y03575*
X02934Y03564*
X02941Y03554*
X02949Y03544*
X02957Y03535*
X02966Y03526*
X02975Y03518*
X02985Y03511*
X02996Y03504*
X03007Y03499*
X03018Y03494*
X0303Y03489*
X03042Y03486*
X03054Y03483*
X03066Y03482*
X03078Y03481*
X03091*
X03103Y03482*
X03115Y03483*
X03127Y03486*
X03139Y03489*
X03151Y03494*
X03162Y03499*
X03173Y03504*
X03184Y03511*
X03194Y03518*
X03203Y03526*
X03212Y03535*
X0322Y03544*
X03228Y03554*
X03235Y03564*
X03241Y03575*
X03246Y03586*
X03251Y03597*
X03255Y03609*
X03258Y03621*
X0326Y03633*
X03261Y03645*
X03262Y03658*
X03215Y03894D02*
X03264D01*
X03215Y03965D02*
X03264D01*
X03712Y0443D02*
X03816D01*
X0389D02*
X03997D01*
Y047*
X03712D02*
X03816D01*
X0389D02*
X03997D01*
X03712Y0443D02*
Y047D01*
X03645Y03342D02*
Y03351D01*
Y03448D02*
Y03457D01*
X03464D02*
X03645D01*
X03464Y03342D02*
Y03351D01*
Y03448D02*
Y03457D01*
Y03342D02*
X03645D01*
X03303Y04081D02*
Y04207D01*
X03106Y04081D02*
Y04207D01*
X03303*
X03106Y04081D02*
X03303D01*
X03359Y0412D02*
Y04169D01*
X0343Y0412D02*
Y04169D01*
X0345Y03617D02*
Y03972D01*
Y03617D02*
X03629Y0359D01*
X0345Y03972D02*
X03629Y03999D01*
Y0359D02*
Y03999D01*
X0372Y03594D02*
Y03994D01*
X04039Y03594D02*
Y03994D01*
X0372Y03594D02*
X04039D01*
X0372Y03994D02*
X04039D01*
X02862Y03885D02*
Y04294D01*
X02842Y03885D02*
X03024D01*
Y04294D01*
X02842D02*
X03024D01*
X02842Y03885D02*
Y04294D01*
X02172Y03842D02*
X02738D01*
X02172Y03487D02*
Y03842D01*
X02738Y03759D02*
Y03842D01*
X02172Y03487D02*
X02508D01*
X02677D02*
X02738D01*
Y0357*
X02494Y03859D02*
Y04259D01*
X02175Y03859D02*
Y04259D01*
X02494*
X02175Y03859D02*
X02494D01*
X02975Y04391D02*
Y04418D01*
X03034Y04391D02*
Y04418D01*
G54D12*
X03157Y04121D02*
D01*
X03157Y04122*
X03157Y04122*
X03157Y04123*
X03157Y04124*
X03157Y04125*
X03156Y04126*
X03156Y04126*
X03156Y04127*
X03155Y04128*
X03155Y04128*
X03154Y04129*
X03153Y0413*
X03153Y0413*
X03152Y04131*
X03151Y04131*
X03151Y04131*
X0315Y04132*
X03149Y04132*
X03148Y04132*
X03148Y04132*
X03147Y04133*
X03146Y04133*
X03145*
X03144Y04133*
X03144Y04132*
X03143Y04132*
X03142Y04132*
X03141Y04132*
X0314Y04131*
X0314Y04131*
X03139Y04131*
X03138Y0413*
X03138Y0413*
X03137Y04129*
X03137Y04128*
X03136Y04128*
X03136Y04127*
X03135Y04126*
X03135Y04126*
X03134Y04125*
X03134Y04124*
X03134Y04123*
X03134Y04122*
X03134Y04122*
X03134Y04121*
X03134Y0412*
X03134Y04119*
X03134Y04118*
X03134Y04118*
X03134Y04117*
X03135Y04116*
X03135Y04115*
X03136Y04115*
X03136Y04114*
X03137Y04113*
X03137Y04113*
X03138Y04112*
X03138Y04111*
X03139Y04111*
X0314Y04111*
X0314Y0411*
X03141Y0411*
X03142Y0411*
X03143Y04109*
X03144Y04109*
X03144Y04109*
X03145Y04109*
X03146*
X03147Y04109*
X03148Y04109*
X03148Y04109*
X03149Y0411*
X0315Y0411*
X03151Y0411*
X03151Y04111*
X03152Y04111*
X03153Y04111*
X03153Y04112*
X03154Y04113*
X03155Y04113*
X03155Y04114*
X03156Y04115*
X03156Y04115*
X03156Y04116*
X03157Y04117*
X03157Y04118*
X03157Y04118*
X03157Y04119*
X03157Y0412*
X03157Y04121*
G54D13*
X03575Y04309D02*
Y04359D01*
X036Y04385*
X03624Y04359*
Y04309*
Y04347*
X03575*
X0365Y04385D02*
Y04309D01*
X03687*
X037Y04322*
Y04372*
X03687Y04385*
X0365*
X03774D02*
X0375D01*
X03762*
Y04322*
X0375Y04309*
X03737*
X03724Y04322*
X038Y04385D02*
Y04322D01*
X03812Y04309*
X03837*
X0385Y04322*
Y04385*
X03924Y04372D02*
X03912Y04385D01*
X03887*
X03874Y04372*
Y04359*
X03887Y04347*
X03912*
X03924Y04335*
Y04322*
X03912Y04309*
X03887*
X03874Y04322*
X0395Y04385D02*
X04D01*
X03974*
Y04309*
X03829Y04097D02*
X03817Y04109D01*
X03792*
X03779Y04097*
Y04047*
X03792Y04035*
X03817*
X03829Y04047*
Y04072*
X03805*
X03855Y04035D02*
Y04109D01*
X03905Y04035*
Y04109*
X03929D02*
Y04035D01*
X03967*
X03979Y04047*
Y04097*
X03967Y04109*
X03929*
X03744Y03535D02*
Y03485D01*
X0377Y03459*
X03794Y03485*
Y03535*
X03857D02*
X03832D01*
X0382Y03522*
Y03472*
X03832Y03459*
X03857*
X0387Y03472*
Y03522*
X03857Y03535*
X03894D02*
Y03472D01*
X03907Y03459*
X03932*
X03944Y03472*
Y03535*
X0397D02*
X0402D01*
X03994*
Y03459*
X0254Y0399D02*
Y0394D01*
X02564Y03914*
X0259Y0394*
Y0399*
X02664Y03977D02*
X02652Y0399D01*
X02627*
X02614Y03977*
Y03927*
X02627Y03914*
X02652*
X02664Y03927*
X02739Y03977D02*
X02727Y0399D01*
X02702*
X02689Y03977*
Y03927*
X02702Y03914*
X02727*
X02739Y03927*
X02579Y04197D02*
X02567Y04209D01*
X02542*
X02529Y04197*
Y04147*
X02542Y04135*
X02567*
X02579Y04147*
Y04172*
X02555*
X02605Y04135D02*
Y04209D01*
X02655Y04135*
Y04209*
X02679D02*
Y04135D01*
X02717*
X02729Y04147*
Y04197*
X02717Y04209*
X02679*
G54D14*
X02255Y03314D02*
Y03214D01*
X02305*
X02321Y03231*
Y03298*
X02305Y03314*
X02255*
X02421Y03298D02*
X02405Y03314D01*
X02371*
X02355Y03298*
Y03231*
X02371Y03214*
X02405*
X02421Y03231*
X02554Y03314D02*
Y03214D01*
X02604*
X02621Y03231*
Y03248*
X02604Y03264*
X02554*
X02604*
X02621Y03281*
Y03298*
X02604Y03314*
X02554*
X02671Y03214D02*
X02704D01*
X02721Y03231*
Y03264*
X02704Y03281*
X02671*
X02654Y03264*
Y03231*
X02671Y03214*
X02771D02*
X02804D01*
X02821Y03231*
Y03264*
X02804Y03281*
X02771*
X02754Y03264*
Y03231*
X02771Y03214*
X02854D02*
X02904D01*
X02921Y03231*
X02904Y03248*
X02871*
X02854Y03264*
X02871Y03281*
X02921*
X02971Y03298D02*
Y03281D01*
X02954*
X02988*
X02971*
Y03231*
X02988Y03214*
X03204Y03298D02*
X03188Y03314D01*
X03154*
X03138Y03298*
Y03231*
X03154Y03214*
X03188*
X03204Y03231*
X03254Y03214D02*
X03288D01*
X03304Y03231*
Y03264*
X03288Y03281*
X03254*
X03238Y03264*
Y03231*
X03254Y03214*
X03337D02*
Y03281D01*
X03387*
X03404Y03264*
Y03214*
X03437Y03281D02*
X03471Y03214D01*
X03504Y03281*
X03587Y03214D02*
X03554D01*
X03537Y03231*
Y03264*
X03554Y03281*
X03587*
X03604Y03264*
Y03248*
X03537*
X03637Y03281D02*
Y03214D01*
Y03248*
X03654Y03264*
X03671Y03281*
X03687*
X03754Y03298D02*
Y03281D01*
X03737*
X03771*
X03754*
Y03231*
X03771Y03214*
X03871D02*
X03837D01*
X03821Y03231*
Y03264*
X03837Y03281*
X03871*
X03887Y03264*
Y03248*
X03821*
X03921Y03281D02*
Y03214D01*
Y03248*
X03937Y03264*
X03954Y03281*
X03971*
X02683Y04564D02*
X026D01*
X02683Y04648*
Y04669*
X02662Y04689*
X0262*
X026Y04669*
G54D15*
X02244Y04394D02*
Y04644D01*
X02411Y04394*
Y04644*
X02494Y04394D02*
X02578D01*
X02536*
Y04561*
X02494*
G54D16*
X03355Y03844D02*
X03344Y03855D01*
X03325*
X03314Y03844*
Y03805*
X03325Y03794*
X03344*
X03355Y03805*
X03414Y03794D02*
X03374D01*
X03414Y03835*
Y03844*
X03405Y03855*
X03385*
X03374Y03844*
X0332Y0349D02*
Y03429D01*
X0335*
X03359Y0344*
Y03479*
X0335Y0349*
X0332*
X03379Y03429D02*
X034D01*
X0339*
Y0349*
X03379Y03479*
X02844Y0352D02*
Y03459D01*
X02885*
X02905D02*
X02924D01*
X02914*
Y0352*
X02905Y03509*
X0335Y04309D02*
Y04259D01*
X03359Y0425*
X03379*
X0339Y04259*
Y04309*
X0345Y0425D02*
X03409D01*
X0345Y0429*
Y043*
X0344Y04309*
X0342*
X03409Y043*
X03559Y04174D02*
X0355Y04185D01*
X03529*
X0352Y04174*
Y04135*
X03529Y04125*
X0355*
X03559Y04135*
X03579Y04125D02*
X036D01*
X0359*
Y04185*
X03579Y04174*
X03374Y0359D02*
Y03629D01*
X03364Y0364*
X03344*
X03335Y03629*
Y0359*
X03344Y03579*
X03364*
X03355Y036D02*
X03374Y03579D01*
X03364D02*
X03374Y0359D01*
X03394Y03579D02*
X03414D01*
X03405*
Y0364*
X03394Y03629*
X03675Y0409D02*
X03655D01*
X03664*
Y0404*
X03655Y04029*
X03644*
X03635Y0404*
X03694Y04079D02*
X03705Y0409D01*
X03724*
X03735Y04079*
Y0407*
X03724Y04059*
X03714*
X03724*
X03735Y0405*
Y0404*
X03724Y04029*
X03705*
X03694Y0404*
X02844Y04379D02*
Y04329D01*
X02855Y0432*
X02875*
X02885Y04329*
Y04379*
X02905Y0432D02*
X02924D01*
X02914*
Y04379*
X02905Y0437*
X02414Y03424D02*
X02394D01*
X02405*
Y03375*
X02394Y03364*
X02385*
X02375Y03375*
X02474Y03364D02*
X02435D01*
X02474Y03405*
Y03414*
X02464Y03424*
X02444*
X02435Y03414*
X03064Y04185D02*
X03044D01*
X03055*
Y04135*
X03044Y04125*
X03035*
X03025Y04135*
X03085Y04125D02*
X03105D01*
X03094*
Y04185*
X03085Y04174*
X0297Y04509D02*
Y0457D01*
X03*
X03009Y04559*
Y0454*
X03Y04529*
X0297*
X0299D02*
X03009Y04509D01*
X03029D02*
X0305D01*
X0304*
Y0457*
X03029Y04559*
X03575Y046D02*
Y04659D01*
X03605*
X03614Y0465*
Y04629*
X03605Y0462*
X03575*
X03594D02*
X03614Y046D01*
X03674D02*
X03635D01*
X03674Y0464*
Y0465*
X03664Y04659*
X03644*
X03635Y0465*
M02*