%FSTAX23Y23*%
%MOIN*%
%SFA1B1*%

%IPPOS*%
%AMD34*
4,1,8,-0.010800,-0.032500,0.010800,-0.032500,0.012800,-0.030500,0.012800,0.030500,0.010800,0.032500,-0.010800,0.032500,-0.012800,0.030500,-0.012800,-0.030500,-0.010800,-0.032500,0.0*
1,1,0.003937,-0.010800,-0.030500*
1,1,0.003937,0.010800,-0.030500*
1,1,0.003937,0.010800,0.030500*
1,1,0.003937,-0.010800,0.030500*
%
%AMD38*
4,1,8,0.035400,-0.017700,0.035400,0.017700,0.017700,0.035400,-0.017700,0.035400,-0.035400,0.017700,-0.035400,-0.017700,-0.017700,-0.035400,0.017700,-0.035400,0.035400,-0.017700,0.0*
1,1,0.035433,0.017700,-0.017700*
1,1,0.035433,0.017700,0.017700*
1,1,0.035433,-0.017700,0.017700*
1,1,0.035433,-0.017700,-0.017700*
%
%ADD17R,0.039370X0.062992*%
%ADD18R,0.098425X0.066929*%
%ADD20R,0.062992X0.039370*%
%ADD22C,0.045275*%
%ADD23R,0.045275X0.045275*%
%ADD26C,0.072835*%
%ADD27R,0.072835X0.072835*%
G04~CAMADD=34~8~0.0~0.0~255.9~649.6~19.7~0.0~15~0.0~0.0~0.0~0.0~0~0.0~0.0~0.0~0.0~0~0.0~0.0~0.0~180.0~256.0~650.0*
%ADD34D34*%
%ADD35R,0.066929X0.041339*%
%ADD36C,0.025197*%
%ADD37C,0.014961*%
G04~CAMADD=38~8~0.0~0.0~708.7~708.7~177.2~0.0~15~0.0~0.0~0.0~0.0~0~0.0~0.0~0.0~0.0~0~0.0~0.0~0.0~270.0~708.0~708.0*
%ADD38D38*%
%ADD39C,0.070866*%
%ADD40R,0.070866X0.070866*%
%ADD41C,0.066929*%
%ADD42R,0.066929X0.066929*%
%ADD43R,0.137795X0.059055*%
%ADD44R,0.059055X0.137795*%
%ADD45R,0.059055X0.157480*%
%LNpcb1_copper_signal_top-1*%
%LPD*%
G54D17*
X03299Y03929D03*
X03181D03*
G54D18*
X03476Y034D03*
X03633D03*
G54D20*
X03394Y04085D03*
Y04203D03*
G54D22*
X03853Y04664D03*
X03753Y04564D03*
G54D23*
X03853Y04464D03*
G54D26*
X03512Y03694D03*
Y03794D03*
G54D27*
X03512Y03894D03*
G54D34*
X03279Y04256D03*
X03229D03*
X03179D03*
X03129D03*
X03279Y04033D03*
X03229D03*
X03179D03*
X03129D03*
G54D35*
X03005Y04354D03*
Y04455D03*
G54D36*
X03379Y04464D02*
X03853D01*
X03255Y0434D02*
X03379Y04464D01*
X03255Y0434D02*
X03491D01*
X03823Y03677D02*
X03862D01*
X03633Y03488D02*
X03823Y03677D01*
X03633Y034D02*
Y03488D01*
X03862Y03677D02*
X03879Y03694D01*
X02335Y03959D02*
X02405Y04029D01*
X02914D02*
X02955Y0399D01*
X02405Y04029D02*
X02914D01*
X02955Y03887D02*
Y0399D01*
X03475Y034D02*
X03496Y0342D01*
X03289Y034D02*
X03475D01*
X03496Y0342D02*
Y03456D01*
X03835Y03794D02*
X03944D01*
X03496Y03456D02*
X03835Y03794D01*
X03985Y03835D02*
Y03914D01*
X03944Y03794D02*
X03985Y03835D01*
X03929Y0397D02*
X03985Y03914D01*
X0375Y0397D02*
X03929D01*
X03575Y03794D02*
X0375Y0397D01*
X03512Y03794D02*
X03575D01*
X03512Y03694D02*
X03605D01*
X03805Y03894D02*
X03879D01*
X03605Y03694D02*
X03805Y03894D01*
X03144Y03864D02*
X03194D01*
X03355Y03704D02*
X03503D01*
X03194Y03864D02*
X03355Y03704D01*
X03194Y03864D02*
X0328D01*
X03299Y03929D02*
X0335D01*
X03394Y03974*
Y04078*
X03503Y03704D02*
X03512Y03694D01*
Y03894D02*
Y04087D01*
X03229Y04033D02*
Y04085D01*
X0328Y03864D02*
X03294Y03879D01*
Y03925D02*
X03299Y03929D01*
X03294Y03879D02*
Y03925D01*
X03129Y03879D02*
Y04033D01*
Y03879D02*
X03144Y03864D01*
X03179Y03931D02*
Y04033D01*
Y03931D02*
X03181Y03929D01*
X03179Y04033D02*
Y041D01*
X03491Y04196D02*
Y0434D01*
X03387Y04085D02*
X03394Y04078D01*
X03179Y04391D02*
X03353Y04564D01*
X03753*
X02335Y04159D02*
X02405Y0409D01*
X02955*
X02276Y04151D02*
X02326D01*
X02335Y04159*
X0225Y04125D02*
X02276Y04151D01*
X0225Y03885D02*
Y04125D01*
Y03885D02*
X02422Y03712D01*
X02457*
X02475Y03664D02*
Y03695D01*
X02457Y03712D02*
X02475Y03695D01*
X03038Y03709D02*
X03085Y03756D01*
X02728Y03709D02*
X03038D01*
X02711Y03664D02*
Y03692D01*
X02728Y03709*
X02955Y03887D02*
X03085Y03756D01*
X03289Y034D02*
X03292Y03402D01*
X03089Y03555D02*
X03133D01*
X03085Y03559D02*
X03089Y03555D01*
X03133D02*
X03289Y034D01*
X03229Y04256D02*
Y04314D01*
X03255Y0434*
X033Y04236D02*
X03329Y04207D01*
X0328Y04236D02*
X033D01*
X03279Y04236D02*
Y04256D01*
X03376Y04207D02*
X03379Y04203D01*
X03329Y04207D02*
X03376D01*
X03279Y04236D02*
X0328Y04236D01*
X03179Y04256D02*
Y04391D01*
X03116Y04455D02*
X03179Y04391D01*
X03005Y04455D02*
X03116D01*
X03005Y04272D02*
Y04354D01*
Y04272D02*
X03021Y04256D01*
X03129Y04033D02*
Y04034D01*
X03129Y04035D02*
X03129Y04034D01*
X03059Y04035D02*
X03129D01*
X03005Y04089D02*
X03059Y04035D01*
X02955Y0409D02*
Y04089D01*
X03005*
X03021Y04256D02*
X03129D01*
X02955Y0419D02*
X03021Y04256D01*
G54D37*
X0347Y04129D02*
X03512Y04087D01*
X03274Y04129D02*
X0347D01*
X03229Y04085D02*
X03274Y04129D01*
X03459Y04164D02*
X03491Y04196D01*
X03179Y041D02*
X03244Y04164D01*
X03459*
G54D38*
X03085Y03756D03*
G54D39*
X03085Y03559D03*
X03879Y03894D03*
X02335Y03959D03*
G54D40*
X03879Y03694D03*
X02335Y04159D03*
G54D41*
X02955Y0419D03*
Y0409D03*
G54D42*
X02955Y0399D03*
G54D43*
X02592Y03479D03*
G54D44*
X02475Y03664D03*
G54D45*
X02711Y03664D03*
M02*