%FSTAX23Y23*%
%MOIN*%
%SFA1B1*%

%IPPOS*%
%ADD11C,0.007874*%
%ADD46C,0.003937*%
%LNpcb1_top_3d_body-1*%
%LPD*%
G54D11*
X03173Y03894D02*
Y03965D01*
Y03894D02*
X03307D01*
Y03965*
X03173D02*
X03307D01*
X03712Y0443D02*
X03997D01*
Y047*
X03712D02*
X03997D01*
X03712Y0443D02*
Y047D01*
X03645Y03342D02*
Y03457D01*
X03464D02*
X03645D01*
X03464Y03342D02*
Y03457D01*
Y03342D02*
X03645D01*
X03359Y04211D02*
X0343D01*
X03359Y04077D02*
Y04211D01*
Y04077D02*
X0343D01*
Y04211*
X0345Y0358D02*
Y04009D01*
Y0358D02*
X03629D01*
Y04009*
X0345D02*
X03629D01*
G54D46*
X03161Y04101D02*
D01*
X03161Y04102*
X03161Y04104*
X03161Y04105*
X03161Y04107*
X0316Y04108*
X0316Y04109*
X03159Y0411*
X03158Y04112*
X03158Y04113*
X03157Y04114*
X03156Y04115*
X03155Y04116*
X03154Y04117*
X03153Y04117*
X03151Y04118*
X0315Y04119*
X03149Y04119*
X03148Y0412*
X03146Y0412*
X03145Y0412*
X03144Y04121*
X03142Y04121*
X03141*
X0314Y04121*
X03138Y0412*
X03137Y0412*
X03136Y0412*
X03134Y04119*
X03133Y04119*
X03132Y04118*
X03131Y04117*
X0313Y04117*
X03128Y04116*
X03127Y04115*
X03127Y04114*
X03126Y04113*
X03125Y04112*
X03124Y0411*
X03124Y04109*
X03123Y04108*
X03123Y04107*
X03122Y04105*
X03122Y04104*
X03122Y04102*
X03122Y04101*
X03122Y041*
X03122Y04098*
X03122Y04097*
X03123Y04096*
X03123Y04094*
X03124Y04093*
X03124Y04092*
X03125Y04091*
X03126Y0409*
X03127Y04088*
X03127Y04087*
X03128Y04086*
X0313Y04086*
X03131Y04085*
X03132Y04084*
X03133Y04083*
X03134Y04083*
X03136Y04082*
X03137Y04082*
X03138Y04082*
X0314Y04081*
X03141Y04081*
X03142*
X03144Y04081*
X03145Y04082*
X03146Y04082*
X03148Y04082*
X03149Y04083*
X0315Y04083*
X03151Y04084*
X03153Y04085*
X03154Y04086*
X03155Y04086*
X03156Y04087*
X03157Y04088*
X03158Y0409*
X03158Y04091*
X03159Y04092*
X0316Y04093*
X0316Y04094*
X03161Y04096*
X03161Y04097*
X03161Y04098*
X03161Y041*
X03161Y04101*
X03303Y04066D02*
Y04223D01*
X03106Y04066D02*
Y04223D01*
X03303*
X03106Y04066D02*
X03303D01*
X04011Y03589D02*
X04016Y03583D01*
X04011Y03589D02*
Y03594D01*
X04016Y03572D02*
Y03583D01*
X0372Y03594D02*
Y03994D01*
X04039Y03594D02*
Y03994D01*
X0372Y03594D02*
X04039D01*
X0372Y03994D02*
X04039D01*
X03988Y03572D02*
X04016D01*
X03988D02*
D01*
Y03583D01*
X03994Y03589D02*
Y03594D01*
X03988Y03583D02*
X03994Y03589D01*
X03024Y03885D02*
Y04294D01*
X02842Y03885D02*
X03024D01*
X02842D02*
Y04294D01*
X03024*
X02894Y03885D02*
Y04294D01*
X02171Y03487D02*
X02738D01*
X02171D02*
Y03842D01*
X02738*
Y03487D02*
Y03842D01*
X02198Y04272D02*
X02203Y04264D01*
Y04259D02*
Y04264D01*
X02198Y04272D02*
Y04282D01*
X02494Y03859D02*
Y04259D01*
X02175Y03859D02*
Y04259D01*
X02494*
X02175Y03859D02*
X02494D01*
X02198Y04282D02*
X02226D01*
Y04272D02*
Y04282D01*
X0222Y04259D02*
Y04264D01*
X02226Y04272*
X02969Y0434D02*
X0304D01*
X02969Y0447D02*
X0304D01*
X02969Y0434D02*
Y0447D01*
X0304Y0434D02*
Y0447D01*
M02*